<?xml version="1.0" encoding="utf-8"?>
<!-- Generator: Adobe Illustrator 23.0.3, SVG Export Plug-In . SVG Version: 6.00 Build 0)  -->
<svg version="1.1" id="Capa_1" xmlns="http://www.w3.org/2000/svg" xmlns:xlink="http://www.w3.org/1999/xlink" x="0px" y="0px"
	 viewBox="0 0 42 30" style="enable-background:new 0 0 42 30;" xml:space="preserve">
<style type="text/css">
	.st0{fill:#FFFFFF;}
	.st1{fill:#F48120;}
</style>
<g>
	<g>
		<path class="st0" d="M2.7,23.5H0C0,11.5,9.7,1.8,21.7,1.8v2.7C11.2,4.5,2.7,13,2.7,23.5z"/>
	</g>
	<g>
		<path class="st1" d="M37.7,21.1c-1.1-7.8-7.9-13.9-16.1-13.9c-8.9,0-16.2,7.3-16.2,16.2h2.7C8.2,16,14.2,10,21.7,10
			c7.4,0,13.5,6.1,13.5,13.5l6.8,0v-1.2L37.7,21.1z"/>
	</g>
	<g>
		<path class="st0" d="M13.6,23.5h-2.7c0-6,4.9-10.8,10.8-10.8v2.7C17.2,15.4,13.6,19,13.6,23.5z"/>
	</g>
	<g>
		<path class="st0" d="M17,23.5c0-2.6,2.1-4.7,4.7-4.7s4.7,2.1,4.7,4.7c0,2.6-2.1,4.7-4.7,4.7S17,26.1,17,23.5z"/>
	</g>
</g>
</svg>
