<?xml version="1.0" encoding="utf-8"?>
<!-- Generator: Adobe Illustrator 23.0.3, SVG Export Plug-In . SVG Version: 6.00 Build 0)  -->
<svg version="1.1" id="Capa_1" xmlns="http://www.w3.org/2000/svg" xmlns:xlink="http://www.w3.org/1999/xlink" x="0px" y="0px"
	 viewBox="0 0 240 40" style="enable-background:new 0 0 240 40;" xml:space="preserve">
<style type="text/css">
	.st0{fill:#2E3092;}
	.st1{fill:#F5821F;}
</style>
<g>
	<g>
		<path class="st0" d="M3.8,32H0C0,15.1,13.7,1.4,30.6,1.4v3.8C15.8,5.2,3.8,17.2,3.8,32z"/>
	</g>
	<g>
		<path class="st1" d="M53.2,28.7C51.6,17.6,42.1,9.1,30.6,9.1C18,9.1,7.7,19.3,7.7,32h3.8c0-10.5,8.5-19,19-19c10.5,0,19,8.5,19,19
			l9.6,0v-1.8L53.2,28.7z"/>
	</g>
	<g>
		<path class="st0" d="M19.2,32h-3.8c0-8.4,6.8-15.3,15.3-15.3v3.8C24.3,20.5,19.2,25.7,19.2,32z"/>
	</g>
	<g>
		<path class="st0" d="M23.9,32c0-3.7,3-6.6,6.6-6.6s6.6,3,6.6,6.6c0,3.7-3,6.6-6.6,6.6S23.9,35.6,23.9,32z"/>
	</g>
	<g>
		<g>
			<path class="st0" d="M63.9,20.5c0-1.4,0.2-2.6,0.6-3.7c0.4-1.1,1-1.9,1.7-2.7c0.7-0.7,1.5-1.2,2.5-1.6c0.9-0.4,1.9-0.5,3-0.5
				c1,0,2,0.2,3,0.5c0.9,0.4,1.7,0.9,2.4,1.6c0.7,0.7,1.3,1.6,1.7,2.7c0.4,1.1,0.6,2.3,0.6,3.7c0,1.4-0.2,2.6-0.6,3.7
				c-0.4,1.1-1,1.9-1.7,2.7c-0.7,0.7-1.5,1.2-2.4,1.6c-0.9,0.4-1.9,0.5-3,0.5c-1.1,0-2.1-0.2-3-0.5c-0.9-0.4-1.8-0.9-2.5-1.6
				c-0.7-0.7-1.3-1.6-1.7-2.7C64.2,23.1,63.9,21.9,63.9,20.5z M66.3,20.5c0,1,0.1,1.9,0.4,2.7c0.2,0.8,0.6,1.5,1.1,2
				c0.5,0.6,1,1,1.7,1.3c0.7,0.3,1.4,0.5,2.2,0.5c0.8,0,1.6-0.2,2.2-0.5c0.7-0.3,1.2-0.7,1.7-1.3c0.5-0.6,0.8-1.2,1.1-2
				c0.2-0.8,0.4-1.7,0.4-2.7c0-1-0.1-1.9-0.4-2.7c-0.2-0.8-0.6-1.5-1.1-2c-0.5-0.6-1-1-1.7-1.3c-0.7-0.3-1.4-0.5-2.2-0.5
				c-0.8,0-1.6,0.2-2.2,0.5c-0.7,0.3-1.2,0.7-1.7,1.3c-0.5,0.6-0.8,1.2-1.1,2C66.5,18.6,66.3,19.5,66.3,20.5z"/>
			<path class="st0" d="M86.6,28.8c-0.3,0-0.7,0-1.1,0c-0.4,0-0.8,0-1.1-0.1c-0.4,0-0.8-0.1-1.1-0.1c-0.4,0-0.7-0.1-1-0.2V12.7
				c0.3-0.1,0.7-0.1,1-0.2c0.4,0,0.8-0.1,1.1-0.1c0.4,0,0.8-0.1,1.1-0.1c0.4,0,0.7,0,1.1,0c0.9,0,1.8,0.1,2.6,0.2
				c0.8,0.1,1.5,0.4,2.1,0.7c0.6,0.3,1.1,0.8,1.4,1.3c0.3,0.5,0.5,1.2,0.5,2c0,0.9-0.2,1.6-0.6,2.2c-0.4,0.6-1,1-1.7,1.3
				c0.9,0.3,1.7,0.7,2.3,1.3c0.6,0.6,0.8,1.5,0.8,2.6c0,1.6-0.6,2.8-1.8,3.7C91,28.4,89.2,28.8,86.6,28.8z M84.4,19.3h2.4
				c0.6,0,1.1,0,1.6-0.1c0.5-0.1,0.9-0.2,1.3-0.4c0.4-0.2,0.7-0.5,0.9-0.8c0.2-0.3,0.3-0.7,0.3-1.2c0-0.5-0.1-0.9-0.3-1.2
				c-0.2-0.3-0.5-0.6-0.9-0.8c-0.4-0.2-0.8-0.3-1.3-0.4c-0.5-0.1-1.1-0.1-1.6-0.1c-0.6,0-1,0-1.4,0c-0.3,0-0.6,0-0.9,0.1V19.3z
				 M84.4,21.1v5.7c0.2,0,0.4,0,0.6,0c0.2,0,0.4,0,0.7,0c0.3,0,0.6,0,0.9,0c0.7,0,1.3,0,1.9-0.1c0.6-0.1,1.1-0.2,1.6-0.5
				c0.5-0.2,0.8-0.5,1.1-0.9c0.3-0.4,0.4-0.9,0.4-1.5c0-0.5-0.1-1-0.3-1.3c-0.2-0.4-0.5-0.7-0.9-0.9c-0.4-0.2-0.8-0.4-1.4-0.5
				c-0.5-0.1-1.1-0.1-1.8-0.1H84.4z"/>
			<path class="st0" d="M104.6,21.9c0.2,0.3,0.6,0.7,0.9,1.2c0.4,0.5,0.8,1.1,1.2,1.7c0.4,0.6,0.8,1.3,1.2,1.9
				c0.4,0.7,0.7,1.3,1,1.9h-2.5c-0.3-0.6-0.7-1.2-1-1.8c-0.4-0.6-0.7-1.2-1.1-1.7c-0.4-0.6-0.7-1.1-1.1-1.6c-0.4-0.5-0.7-0.9-1-1.3
				c-0.2,0-0.4,0-0.6,0c-0.2,0-0.4,0-0.6,0h-2v6.3h-2.3v-16c0.6-0.2,1.4-0.3,2.1-0.3c0.8-0.1,1.5-0.1,2.2-0.1c2.3,0,4,0.4,5.2,1.3
				c1.2,0.9,1.8,2.1,1.8,3.8c0,1.1-0.3,2-0.9,2.8C106.5,20.9,105.7,21.5,104.6,21.9z M101.1,14.3c-1,0-1.7,0-2.2,0.1v6.1h1.6
				c0.8,0,1.5,0,2.1-0.1c0.6-0.1,1.1-0.2,1.6-0.4c0.4-0.2,0.8-0.5,1-0.9c0.2-0.4,0.4-0.9,0.4-1.6c0-0.6-0.1-1.1-0.4-1.5
				c-0.2-0.4-0.5-0.7-0.9-1c-0.4-0.2-0.9-0.4-1.4-0.5C102.3,14.3,101.7,14.3,101.1,14.3z"/>
			<path class="st0" d="M122.2,28.6c-0.3-0.7-0.5-1.4-0.7-2.1c-0.2-0.7-0.5-1.4-0.7-2.1h-7.3l-1.5,4.1h-2.4c0.6-1.7,1.2-3.3,1.8-4.8
				c0.5-1.5,1.1-2.8,1.6-4.1c0.5-1.3,1-2.6,1.6-3.8c0.5-1.2,1.1-2.4,1.6-3.5h2.1c0.6,1.2,1.1,2.3,1.6,3.5c0.5,1.2,1,2.4,1.6,3.8
				c0.5,1.3,1.1,2.7,1.6,4.1c0.5,1.5,1.1,3,1.8,4.8H122.2z M120.1,22.6c-0.5-1.4-1-2.7-1.5-3.9c-0.5-1.3-1-2.5-1.5-3.7
				c-0.5,1.2-1.1,2.4-1.6,3.7c-0.5,1.3-1,2.6-1.5,3.9H120.1z"/>
			<path class="st0" d="M144.4,20.5c0,1.4-0.2,2.6-0.7,3.7c-0.4,1-1.1,1.9-1.8,2.6c-0.8,0.7-1.7,1.2-2.9,1.5
				c-1.1,0.3-2.3,0.5-3.6,0.5c-0.7,0-1.4,0-2.2-0.1c-0.8-0.1-1.5-0.2-2.1-0.3V12.7c0.6-0.2,1.4-0.3,2.1-0.3c0.8-0.1,1.5-0.1,2.2-0.1
				c1.3,0,2.5,0.2,3.6,0.5c1.1,0.3,2.1,0.8,2.9,1.5c0.8,0.7,1.4,1.5,1.8,2.6C144.2,17.9,144.4,19.1,144.4,20.5z M135.6,26.8
				c2.2,0,3.8-0.5,4.8-1.6c1.1-1.1,1.6-2.6,1.6-4.6c0-2-0.5-3.5-1.6-4.6c-1.1-1.1-2.7-1.6-4.8-1.6c-0.6,0-1.1,0-1.5,0
				c-0.4,0-0.6,0-0.7,0v12.4c0.1,0,0.4,0,0.7,0C134.5,26.8,135,26.8,135.6,26.8z"/>
			<path class="st0" d="M147.2,28.6V12.4h9.9v1.9h-7.6v4.8h6.8v1.9h-6.8v5.6h8.2v1.9H147.2z"/>
			<path class="st0" d="M167.2,26.4c-0.2-0.4-0.4-0.8-0.6-1.4c-0.3-0.6-0.5-1.2-0.8-1.9c-0.3-0.7-0.6-1.4-0.9-2.1
				c-0.3-0.7-0.7-1.4-0.9-2c-0.3-0.6-0.6-1.2-0.8-1.7c-0.3-0.5-0.5-0.9-0.6-1.1c-0.2,1.8-0.3,3.8-0.4,6c-0.1,2.1-0.2,4.3-0.3,6.5
				h-2.2c0.1-1.4,0.1-2.8,0.2-4.2c0.1-1.4,0.2-2.8,0.3-4.2c0.1-1.4,0.2-2.7,0.3-4c0.1-1.3,0.2-2.5,0.4-3.7h2
				c0.4,0.7,0.9,1.5,1.4,2.4c0.5,0.9,1,1.9,1.4,2.9c0.5,1,0.9,2,1.4,3.1c0.5,1,0.9,2,1.2,2.8c0.4-0.8,0.8-1.8,1.2-2.8
				c0.5-1,0.9-2,1.4-3.1c0.5-1,1-2,1.4-2.9c0.5-0.9,0.9-1.7,1.4-2.4h2c0.5,5.2,0.9,10.6,1.2,16.2h-2.2c-0.1-2.2-0.2-4.3-0.3-6.5
				c-0.1-2.1-0.2-4.1-0.4-6c-0.2,0.3-0.4,0.6-0.6,1.1c-0.3,0.5-0.5,1.1-0.8,1.7c-0.3,0.6-0.6,1.3-0.9,2c-0.3,0.7-0.7,1.4-0.9,2.1
				c-0.3,0.7-0.6,1.3-0.8,1.9c-0.3,0.6-0.5,1.1-0.6,1.4H167.2z"/>
			<path class="st0" d="M190.6,28.6c-0.3-0.7-0.5-1.4-0.7-2.1c-0.2-0.7-0.5-1.4-0.7-2.1h-7.3l-1.5,4.1h-2.4c0.6-1.7,1.2-3.3,1.8-4.8
				c0.5-1.5,1.1-2.8,1.6-4.1c0.5-1.3,1-2.6,1.6-3.8c0.5-1.2,1.1-2.4,1.6-3.5h2.1c0.6,1.2,1.1,2.3,1.6,3.5c0.5,1.2,1,2.4,1.6,3.8
				c0.5,1.3,1.1,2.7,1.6,4.1c0.5,1.5,1.1,3,1.8,4.8H190.6z M188.4,22.6c-0.5-1.4-1-2.7-1.5-3.9c-0.5-1.3-1-2.5-1.5-3.7
				c-0.5,1.2-1.1,2.4-1.6,3.7c-0.5,1.3-1,2.6-1.5,3.9H188.4z"/>
			<path class="st0" d="M205.7,28.6c-0.3-0.6-0.7-1.2-1.2-1.9c-0.4-0.7-0.9-1.5-1.4-2.2c-0.5-0.8-1-1.6-1.6-2.3
				c-0.6-0.8-1.1-1.6-1.6-2.3c-0.5-0.7-1.1-1.4-1.6-2.1c-0.5-0.7-1-1.2-1.4-1.7v12.6h-2.2V12.4h1.8c0.7,0.8,1.5,1.7,2.3,2.7
				c0.8,1,1.7,2.1,2.5,3.2c0.8,1.1,1.6,2.2,2.3,3.2c0.7,1.1,1.3,2,1.8,2.8v-12h2.2v16.2H205.7z"/>
			<path class="st0" d="M224.4,20.5c0,1.4-0.2,2.6-0.7,3.7c-0.4,1-1.1,1.9-1.8,2.6c-0.8,0.7-1.7,1.2-2.9,1.5
				c-1.1,0.3-2.3,0.5-3.6,0.5c-0.7,0-1.4,0-2.2-0.1c-0.8-0.1-1.5-0.2-2.1-0.3V12.7c0.6-0.2,1.4-0.3,2.1-0.3c0.8-0.1,1.5-0.1,2.2-0.1
				c1.3,0,2.5,0.2,3.6,0.5c1.1,0.3,2.1,0.8,2.9,1.5c0.8,0.7,1.4,1.5,1.8,2.6S224.4,19.1,224.4,20.5z M215.6,26.8
				c2.1,0,3.8-0.5,4.8-1.6c1.1-1.1,1.6-2.6,1.6-4.6c0-2-0.5-3.5-1.6-4.6s-2.7-1.6-4.8-1.6c-0.6,0-1.1,0-1.5,0c-0.4,0-0.6,0-0.7,0
				v12.4c0.1,0,0.4,0,0.7,0C214.4,26.8,214.9,26.8,215.6,26.8z"/>
			<path class="st0" d="M237.5,28.6c-0.3-0.7-0.5-1.4-0.7-2.1c-0.2-0.7-0.5-1.4-0.7-2.1h-7.3l-1.5,4.1h-2.4c0.6-1.7,1.2-3.3,1.8-4.8
				c0.5-1.5,1.1-2.8,1.6-4.1c0.5-1.3,1-2.6,1.6-3.8c0.5-1.2,1.1-2.4,1.6-3.5h2.1c0.6,1.2,1.1,2.3,1.6,3.5c0.5,1.2,1,2.4,1.6,3.8
				c0.5,1.3,1.1,2.7,1.6,4.1c0.5,1.5,1.1,3,1.8,4.8H237.5z M235.4,22.6c-0.5-1.4-1-2.7-1.5-3.9c-0.5-1.3-1-2.5-1.5-3.7
				c-0.5,1.2-1.1,2.4-1.6,3.7c-0.5,1.3-1,2.6-1.5,3.9H235.4z"/>
		</g>
	</g>
</g>
</svg>
