<?xml version="1.0" encoding="utf-8"?>
<!-- Generator: Adobe Illustrator 23.0.3, SVG Export Plug-In . SVG Version: 6.00 Build 0)  -->
<svg version="1.1" id="Capa_1" xmlns="http://www.w3.org/2000/svg" xmlns:xlink="http://www.w3.org/1999/xlink" x="0px" y="0px"
	 viewBox="0 0 240 30" style="enable-background:new 0 0 240 30;" xml:space="preserve">
<style type="text/css">
	.st0{fill:#FFFFFF;}
	.st1{fill:#F5821F;}
</style>
<g>
	<g>
		<path class="st0" d="M26.4,24.6h-3.1C23.3,11.1,34.3,0,47.9,0v3.1C36,3.1,26.4,12.8,26.4,24.6z"/>
	</g>
	<g>
		<path class="st1" d="M66.2,22c-1.3-8.9-9-15.8-18.3-15.8c-10.2,0-18.5,8.3-18.5,18.5h3.1c0-8.5,6.9-15.4,15.4-15.4
			c8.5,0,15.4,6.9,15.4,15.4l7.8,0v-1.4L66.2,22z"/>
	</g>
	<g>
		<path class="st0" d="M38.7,24.6h-3.1c0-6.8,5.5-12.3,12.3-12.3v3.1C42.8,15.4,38.7,19.6,38.7,24.6z"/>
	</g>
	<g>
		<path class="st0" d="M42.6,24.6c0-3,2.4-5.4,5.4-5.4c3,0,5.4,2.4,5.4,5.4c0,3-2.4,5.4-5.4,5.4C45,30,42.6,27.6,42.6,24.6z"/>
	</g>
	<g>
		<g>
			<path class="st0" d="M74.8,15.4c0-1.1,0.2-2.1,0.5-3c0.3-0.9,0.8-1.6,1.4-2.1c0.6-0.6,1.2-1,2-1.3c0.8-0.3,1.6-0.4,2.4-0.4
				c0.8,0,1.6,0.1,2.4,0.4c0.7,0.3,1.4,0.7,2,1.3c0.6,0.6,1,1.3,1.3,2.1c0.3,0.9,0.5,1.8,0.5,3c0,1.1-0.2,2.1-0.5,3
				c-0.3,0.9-0.8,1.6-1.3,2.1c-0.6,0.6-1.2,1-2,1.3c-0.7,0.3-1.5,0.4-2.4,0.4c-0.9,0-1.7-0.1-2.4-0.4c-0.8-0.3-1.4-0.7-2-1.3
				c-0.6-0.6-1-1.3-1.4-2.1C75,17.5,74.8,16.5,74.8,15.4z M76.7,15.4c0,0.8,0.1,1.5,0.3,2.2c0.2,0.6,0.5,1.2,0.9,1.6
				c0.4,0.5,0.8,0.8,1.4,1c0.5,0.2,1.1,0.4,1.8,0.4c0.7,0,1.3-0.1,1.8-0.4c0.5-0.2,1-0.6,1.3-1c0.4-0.5,0.7-1,0.9-1.6
				c0.2-0.6,0.3-1.4,0.3-2.2c0-0.8-0.1-1.5-0.3-2.2c-0.2-0.6-0.5-1.2-0.9-1.6c-0.4-0.5-0.8-0.8-1.3-1c-0.5-0.2-1.1-0.4-1.8-0.4
				c-0.7,0-1.3,0.1-1.8,0.4c-0.5,0.2-1,0.6-1.4,1c-0.4,0.5-0.7,1-0.9,1.6C76.8,13.9,76.7,14.6,76.7,15.4z"/>
			<path class="st0" d="M93,22.1c-0.3,0-0.5,0-0.9,0c-0.3,0-0.6,0-0.9-0.1c-0.3,0-0.6-0.1-0.9-0.1c-0.3,0-0.6-0.1-0.8-0.2V9.1
				C89.8,9,90.1,9,90.4,8.9c0.3,0,0.6-0.1,0.9-0.1c0.3,0,0.6,0,0.9-0.1c0.3,0,0.6,0,0.8,0c0.8,0,1.5,0.1,2.1,0.2
				c0.7,0.1,1.2,0.3,1.7,0.6c0.5,0.3,0.9,0.6,1.1,1.1c0.3,0.4,0.4,1,0.4,1.6c0,0.7-0.2,1.3-0.5,1.8c-0.3,0.5-0.8,0.8-1.4,1
				c0.8,0.2,1.4,0.6,1.8,1.1c0.5,0.5,0.7,1.2,0.7,2.1c0,1.3-0.5,2.3-1.4,2.9C96.7,21.7,95.1,22.1,93,22.1z M91.3,14.4h1.9
				c0.5,0,0.9,0,1.3-0.1c0.4-0.1,0.8-0.2,1-0.3c0.3-0.2,0.5-0.4,0.7-0.6c0.2-0.3,0.3-0.6,0.3-1c0-0.4-0.1-0.7-0.3-1
				c-0.2-0.3-0.4-0.5-0.7-0.6c-0.3-0.2-0.7-0.3-1.1-0.3c-0.4-0.1-0.9-0.1-1.3-0.1c-0.5,0-0.8,0-1.1,0c-0.3,0-0.5,0-0.7,0.1V14.4z
				 M91.3,15.9v4.6c0.1,0,0.3,0,0.5,0c0.2,0,0.4,0,0.6,0c0.2,0,0.5,0,0.8,0c0.5,0,1.1,0,1.5-0.1c0.5-0.1,0.9-0.2,1.3-0.4
				c0.4-0.2,0.7-0.4,0.9-0.7c0.2-0.3,0.3-0.7,0.3-1.2c0-0.4-0.1-0.8-0.2-1.1c-0.2-0.3-0.4-0.5-0.7-0.7c-0.3-0.2-0.7-0.3-1.1-0.4
				c-0.4-0.1-0.9-0.1-1.4-0.1H91.3z"/>
			<path class="st0" d="M107.6,16.5c0.2,0.3,0.5,0.6,0.8,1c0.3,0.4,0.6,0.9,1,1.4c0.3,0.5,0.6,1,1,1.6c0.3,0.5,0.6,1.1,0.8,1.6h-2
				c-0.3-0.5-0.5-1-0.8-1.5c-0.3-0.5-0.6-1-0.9-1.4c-0.3-0.4-0.6-0.9-0.9-1.3c-0.3-0.4-0.6-0.7-0.8-1c-0.2,0-0.3,0-0.5,0
				c-0.2,0-0.3,0-0.5,0H103V22h-1.8V9.1c0.5-0.1,1.1-0.2,1.7-0.3c0.6,0,1.2-0.1,1.7-0.1c1.8,0,3.2,0.3,4.2,1c1,0.7,1.4,1.7,1.4,3.1
				c0,0.9-0.2,1.6-0.7,2.2C109.1,15.7,108.4,16.2,107.6,16.5z M104.8,10.4c-0.8,0-1.4,0-1.8,0.1v4.9h1.3c0.6,0,1.2,0,1.7-0.1
				c0.5-0.1,0.9-0.2,1.3-0.4c0.3-0.2,0.6-0.4,0.8-0.7c0.2-0.3,0.3-0.7,0.3-1.3c0-0.5-0.1-0.9-0.3-1.2c-0.2-0.3-0.4-0.6-0.8-0.8
				c-0.3-0.2-0.7-0.3-1.1-0.4C105.7,10.4,105.3,10.4,104.8,10.4z"/>
			<path class="st0" d="M121.8,22c-0.2-0.6-0.4-1.1-0.6-1.7c-0.2-0.5-0.4-1.1-0.6-1.7h-5.9l-1.2,3.3h-1.9c0.5-1.4,1-2.7,1.4-3.8
				c0.4-1.2,0.9-2.3,1.3-3.3c0.4-1.1,0.8-2.1,1.3-3c0.4-1,0.8-1.9,1.3-2.9h1.7c0.5,0.9,0.9,1.9,1.3,2.9c0.4,1,0.8,2,1.3,3
				c0.4,1.1,0.9,2.2,1.3,3.3c0.4,1.2,0.9,2.5,1.4,3.8H121.8z M120.1,17.1c-0.4-1.1-0.8-2.2-1.2-3.2c-0.4-1-0.8-2-1.2-2.9
				c-0.4,0.9-0.9,1.9-1.3,2.9c-0.4,1-0.8,2.1-1.2,3.2H120.1z"/>
			<path class="st0" d="M139.7,15.4c0,1.1-0.2,2.1-0.5,2.9c-0.4,0.8-0.8,1.5-1.5,2.1c-0.6,0.5-1.4,1-2.3,1.2
				c-0.9,0.3-1.9,0.4-2.9,0.4c-0.5,0-1.1,0-1.7-0.1c-0.6,0-1.2-0.1-1.7-0.3V9.1c0.5-0.1,1.1-0.2,1.7-0.3c0.6,0,1.2-0.1,1.7-0.1
				c1.1,0,2,0.1,2.9,0.4c0.9,0.3,1.7,0.7,2.3,1.2c0.6,0.5,1.1,1.2,1.5,2.1C139.5,13.3,139.7,14.3,139.7,15.4z M132.6,20.5
				c1.7,0,3-0.4,3.9-1.3c0.9-0.9,1.3-2.1,1.3-3.7c0-1.6-0.4-2.8-1.3-3.7c-0.9-0.9-2.1-1.3-3.9-1.3c-0.5,0-0.9,0-1.2,0
				c-0.3,0-0.5,0-0.6,0v10c0.1,0,0.3,0,0.6,0C131.7,20.5,132.1,20.5,132.6,20.5z"/>
			<path class="st0" d="M141.9,22V8.9h8v1.6h-6.1v3.9h5.5v1.5h-5.5v4.5h6.6V22H141.9z"/>
			<path class="st0" d="M158.1,20.1c-0.1-0.3-0.3-0.7-0.5-1.1c-0.2-0.5-0.4-1-0.7-1.5c-0.2-0.5-0.5-1.1-0.8-1.7
				c-0.3-0.6-0.5-1.1-0.8-1.6s-0.5-1-0.7-1.4c-0.2-0.4-0.4-0.7-0.5-0.9c-0.1,1.5-0.3,3.1-0.3,4.8c-0.1,1.7-0.2,3.5-0.2,5.2h-1.8
				c0.1-1.1,0.1-2.3,0.2-3.4c0.1-1.1,0.1-2.3,0.2-3.4c0.1-1.1,0.2-2.2,0.3-3.2c0.1-1.1,0.2-2.1,0.3-3h1.6c0.3,0.6,0.7,1.2,1.1,2
				c0.4,0.8,0.8,1.5,1.2,2.4c0.4,0.8,0.8,1.6,1.1,2.5c0.4,0.8,0.7,1.6,1,2.3c0.3-0.7,0.6-1.4,1-2.3c0.4-0.8,0.7-1.6,1.1-2.5
				c0.4-0.8,0.8-1.6,1.2-2.4c0.4-0.8,0.8-1.4,1.1-2h1.6c0.4,4.2,0.7,8.6,1,13.1H164c-0.1-1.8-0.1-3.5-0.2-5.2
				c-0.1-1.7-0.2-3.3-0.3-4.8c-0.1,0.2-0.3,0.5-0.5,0.9c-0.2,0.4-0.4,0.9-0.7,1.4c-0.2,0.5-0.5,1-0.8,1.6c-0.3,0.6-0.5,1.1-0.8,1.7
				c-0.2,0.5-0.5,1-0.7,1.5c-0.2,0.5-0.4,0.8-0.5,1.1H158.1z"/>
			<path class="st0" d="M176.9,22c-0.2-0.6-0.4-1.1-0.6-1.7c-0.2-0.5-0.4-1.1-0.6-1.7h-5.9l-1.2,3.3h-1.9c0.5-1.4,1-2.7,1.4-3.8
				c0.4-1.2,0.9-2.3,1.3-3.3c0.4-1.1,0.8-2.1,1.3-3c0.4-1,0.8-1.9,1.3-2.9h1.7c0.5,0.9,0.9,1.9,1.3,2.9c0.4,1,0.8,2,1.3,3
				c0.4,1.1,0.9,2.2,1.3,3.3c0.4,1.2,0.9,2.5,1.4,3.8H176.9z M175.2,17.1c-0.4-1.1-0.8-2.2-1.2-3.2c-0.4-1-0.8-2-1.2-2.9
				c-0.4,0.9-0.9,1.9-1.3,2.9c-0.4,1-0.8,2.1-1.2,3.2H175.2z"/>
			<path class="st0" d="M189.1,22c-0.3-0.5-0.6-1-1-1.6c-0.4-0.6-0.7-1.2-1.2-1.8c-0.4-0.6-0.8-1.3-1.3-1.9s-0.9-1.3-1.3-1.9
				c-0.4-0.6-0.9-1.2-1.3-1.7c-0.4-0.5-0.8-1-1.1-1.4V22h-1.8V8.9h1.5c0.6,0.6,1.2,1.4,1.9,2.2c0.7,0.8,1.3,1.7,2,2.6
				c0.7,0.9,1.3,1.8,1.9,2.6c0.6,0.9,1.1,1.6,1.5,2.3V8.9h1.8V22H189.1z"/>
			<path class="st0" d="M204.1,15.4c0,1.1-0.2,2.1-0.5,2.9c-0.4,0.8-0.8,1.5-1.5,2.1c-0.6,0.5-1.4,1-2.3,1.2
				c-0.9,0.3-1.9,0.4-2.9,0.4c-0.5,0-1.1,0-1.7-0.1c-0.6,0-1.2-0.1-1.7-0.3V9.1c0.5-0.1,1.1-0.2,1.7-0.3c0.6,0,1.2-0.1,1.7-0.1
				c1.1,0,2,0.1,2.9,0.4c0.9,0.3,1.7,0.7,2.3,1.2c0.6,0.5,1.1,1.2,1.5,2.1C204,13.3,204.1,14.3,204.1,15.4z M197,20.5
				c1.7,0,3-0.4,3.9-1.3c0.9-0.9,1.3-2.1,1.3-3.7c0-1.6-0.4-2.8-1.3-3.7c-0.9-0.9-2.1-1.3-3.9-1.3c-0.5,0-0.9,0-1.2,0
				c-0.3,0-0.5,0-0.6,0v10c0.1,0,0.3,0,0.6,0C196.1,20.5,196.5,20.5,197,20.5z"/>
			<path class="st0" d="M214.7,22c-0.2-0.6-0.4-1.1-0.6-1.7c-0.2-0.5-0.4-1.1-0.6-1.7h-5.9l-1.2,3.3h-1.9c0.5-1.4,1-2.7,1.4-3.8
				c0.4-1.2,0.9-2.3,1.3-3.3c0.4-1.1,0.8-2.1,1.3-3c0.4-1,0.8-1.9,1.3-2.9h1.7c0.5,0.9,0.9,1.9,1.3,2.9c0.4,1,0.8,2,1.3,3
				c0.4,1.1,0.9,2.2,1.3,3.3c0.4,1.2,0.9,2.5,1.4,3.8H214.7z M213,17.1c-0.4-1.1-0.8-2.2-1.2-3.2c-0.4-1-0.8-2-1.2-2.9
				c-0.4,0.9-0.9,1.9-1.3,2.9c-0.4,1-0.8,2.1-1.2,3.2H213z"/>
		</g>
	</g>
</g>
</svg>
